<svg xmlns="http://www.w3.org/2000/svg" width="10" height="10" viewBox="0 0 10 10">
  <path fill="#212121" d="M8.8083944,7.49 C8.82891782,7.33 8.84944124,7.17 8.84944124,7 C8.84944124,6.83 8.83917953,6.67 8.8083944,6.51 L9.89613555,5.68 C9.98849093,5.6 10.0192761,5.47 9.9577058,5.36 L8.93153491,3.63 C8.86996466,3.52 8.73656244,3.48 8.61342193,3.52 L7.34097002,4.02 C7.07416559,3.82 6.78683774,3.65 6.46872477,3.53 L6.2737523,2.21 C6.26349059,2.09 6.15061179,2 6.02747128,2 L3.9751295,2 C3.85198899,2 3.73911019,2.09 3.71858677,2.21 L3.5236143,3.53 C3.21576304,3.66 2.91817348,3.82 2.65136904,4.02 L1.37891714,3.52 C1.26603834,3.48 1.13263612,3.52 1.06080416,3.63 L0.0346332676,5.36 C-0.0269369859,5.47 -0.00641356808,5.6 0.0962035212,5.68 L1.18394467,6.51 C1.16342125,6.67 1.15315954,6.83 1.15315954,7 C1.15315954,7.17 1.16342125,7.33 1.18394467,7.49 L0.0962035212,8.32 C0.00384814085,8.4 -0.0269369859,8.53 0.0346332676,8.64 L1.06080416,10.37 C1.12237441,10.48 1.25577663,10.52 1.37891714,10.48 L2.65136904,9.98 C2.91817348,10.18 3.20550133,10.35 3.5236143,10.47 L3.71858677,11.79 C3.73911019,11.91 3.84172728,12 3.9751295,12 L6.02747128,12 C6.15061179,12 6.26349059,11.91 6.28401401,11.79 L6.47898647,10.47 C6.78683774,10.34 7.0844273,10.18 7.34097002,9.98 L8.62368364,10.48 C8.73656244,10.52 8.86996466,10.48 8.94179662,10.37 L9.96796751,8.64 C10.0295378,8.53 9.99875264,8.4 9.90639726,8.32 L8.8083944,7.49 Z M5.00130039,8.5 C4.14957855,8.5 3.46204405,7.83 3.46204405,7 C3.46204405,6.17 4.14957855,5.5 5.00130039,5.5 C5.85302223,5.5 6.54055673,6.17 6.54055673,7 C6.54055673,7.83 5.85302223,8.5 5.00130039,8.5 Z" transform="translate(0 -2)"/>
</svg>
