<svg xmlns="http://www.w3.org/2000/svg" width="8" height="8" viewBox="0 0 8 8">
  <path fill="#212121" d="M68.4142136,7 L69.8284271,8.41421356 C70.2189514,8.80473785 70.2189514,9.43790283 69.8284271,9.82842712 C69.4379028,10.2189514 68.8047379,10.2189514 68.4142136,9.82842712 L67,8.41421356 L65.5857864,9.82842712 C65.1952621,10.2189514 64.5620972,10.2189514 64.1715729,9.82842712 C63.7810486,9.43790283 63.7810486,8.80473785 64.1715729,8.41421356 L65.5857864,7 L64.1715729,5.58578644 C63.7810486,5.19526215 63.7810486,4.56209717 64.1715729,4.17157288 C64.5620972,3.78104858 65.1952621,3.78104858 65.5857864,4.17157288 L67,5.58578644 L68.4142136,4.17157288 C68.8047379,3.78104858 69.4379028,3.78104858 69.8284271,4.17157288 C70.2189514,4.56209717 70.2189514,5.19526215 69.8284271,5.58578644 L68.4142136,7 Z" transform="translate(-63 -3)"/>
</svg>
