<svg xmlns="http://www.w3.org/2000/svg" width="22" height="22" viewBox="0 0 22 22">
  <g fill="none" transform="translate(1 1)">
    <circle cx="10" cy="10" r="10" fill="#FFF"/>
    <path fill="#212121" stroke="#FFF" d="M13.1819805,6.81801948 C12.9867184,6.62275734 12.6701359,6.62275734 12.4748737,6.81801948 L10,9.29289322 L7.52512627,6.81801948 C7.32986412,6.62275734 7.01328163,6.62275734 6.81801948,6.81801948 C6.62275734,7.01328163 6.62275734,7.32986412 6.81801948,7.52512627 L9.29289322,10 L6.81801948,12.4748737 C6.62275734,12.6701359 6.62275734,12.9867184 6.81801948,13.1819805 C7.01328163,13.3772427 7.32986412,13.3772427 7.52512627,13.1819805 L10,10.7071068 L12.4748737,13.1819805 C12.6701359,13.3772427 12.9867184,13.3772427 13.1819805,13.1819805 C13.3772427,12.9867184 13.3772427,12.6701359 13.1819805,12.4748737 L10.7071068,10 L13.1819805,7.52512627 C13.3772427,7.32986412 13.3772427,7.01328163 13.1819805,6.81801948 Z M10,-0.5 C15.7961424,-0.5 20.5,4.20385763 20.5,10 C20.5,15.7961424 15.7961424,20.5 10,20.5 C4.20385763,20.5 -0.5,15.7961424 -0.5,10 C-0.5,4.20385763 4.20385763,-0.5 10,-0.5 Z"/>
  </g>
</svg>
